# xmcd
#
# Track frame offsets:
#	150
#	13975
#	24925
#	34115
#	42835
#	53470
#	62352
#	71510
#	83110
#	93317
#	102260
#	112967
#
# Disc length: 1666 seconds
#
# Revision: 0
# Processed by: cddbd v1.4PL0 Copyright (c) Steve Scherf et al.
# Submitted via: audiograbber 1.81.00
#
DISCID=8806800c
DTITLE=Webb Pierce - In The Jailhouse Now
DYEAR=1900
DGENRE=Country
TTITLE0=Back Street Affair
TTITLE1=Cryin' Over You
TTITLE2=I Ain't Never
TTITLE3=I'm Tired
TTITLE4=In The Jailhouse Now
TTITLE5=It's Been Go Long
TTITLE6=I Don't Care
TTITLE7=Slowly
TTITLE8=There Stands The Glass
TTITLE9=Tupelo County Jail
TTITLE10=Cowtown
TTITLE11=Yes I Know Why
EXTD=
EXTT0=
EXTT1=
EXTT2=
EXTT3=
EXTT4=
EXTT5=
EXTT6=
EXTT7=
EXTT8=
EXTT9=
EXTT10=
EXTT11=
PLAYORDER=
